HIERARCHY
ROOT hip
{
  OFFSET 0 0 0
  CHANNELS 6 Xposition Yposition Zposition Zrotation Yrotation Xrotation
  JOINT abdomen
  {
    OFFSET 0 20.6881 -0.73152
    CHANNELS 3 Zrotation Xrotation Yrotation
    JOINT chest
    {
      OFFSET 0 11.7043 -0.48768
      CHANNELS 3 Zrotation Xrotation Yrotation
      JOINT neck
      {
        OFFSET 0 22.1894 -2.19456
        CHANNELS 3 Zrotation Xrotation Yrotation
        JOINT head
        {
          OFFSET -0.24384 7.07133 1.2192
          CHANNELS 3 Zrotation Xrotation Yrotation
          JOINT leftEye
          {
            OFFSET 4.14528 8.04674 8.04672
            CHANNELS 3 Zrotation Xrotation Yrotation
            End Site
            {
              OFFSET 1 0 0
            }
          }
          JOINT rightEye
          {
            OFFSET -3.6576 8.04674 8.04672
            CHANNELS 3 Zrotation Xrotation Yrotation
            End Site
            {
              OFFSET 1 0 0
            }
          }
        }
      }
      JOINT rCollar
      {
        OFFSET -2.68224 19.2634 -4.8768
        CHANNELS 3 Zrotation Xrotation Yrotation
        JOINT rShldr
        {
          OFFSET -8.77824 -1.95073 1.46304
          CHANNELS 3 Zrotation Xrotation Yrotation
          JOINT rForeArm
          {
            OFFSET -28.1742 -1.7115 0.48768
            CHANNELS 3 Zrotation Xrotation Yrotation
            JOINT rHand
            {
              OFFSET -22.5879 0.773209 7.07136
              CHANNELS 3 Zrotation Xrotation Yrotation
              JOINT rThumb1
              {
                OFFSET -1.2192 -0.487915 3.41376
                CHANNELS 3 Zrotation Xrotation Yrotation
                JOINT rThumb2
                {
                  OFFSET -3.37035 -0.52449 3.41376
                  CHANNELS 3 Zrotation Xrotation Yrotation
                  End Site
                  {
                    OFFSET -1.78271 -1.18214 1.43049
                  }
                }
              }
              JOINT rIndex1
              {
                OFFSET -7.75947 0.938293 5.60832
                CHANNELS 3 Zrotation Xrotation Yrotation
                JOINT rIndex2
                {
                  OFFSET -2.54057 -0.884171 1.56538
                  CHANNELS 3 Zrotation Xrotation Yrotation
                  End Site
                  {
                    OFFSET -1.62519 -0.234802 1.16502
                  }
                }
              }
              JOINT rMid1
              {
                OFFSET -8.24714 1.18213 3.41376
                CHANNELS 3 Zrotation Xrotation Yrotation
                JOINT rMid2
                {
                  OFFSET -3.10165 -0.590103 1.0647
                  CHANNELS 3 Zrotation Xrotation Yrotation
                  End Site
                  {
                    OFFSET -2.48547 -0.328903 0.83742
                  }
                }
              }
              JOINT rRing1
              {
                OFFSET -8.82822 0.546677 1.51678
                CHANNELS 3 Zrotation Xrotation Yrotation
                JOINT rRing2
                {
                  OFFSET -2.60934 -0.819778 -0.0198488
                  CHANNELS 3 Zrotation Xrotation Yrotation
                  End Site
                  {
                    OFFSET -2.33842 -0.294052 0.168128
                  }
                }
              }
              JOINT rPinky1
              {
                OFFSET -8.27202 -0.0477905 -0.4584
                CHANNELS 3 Zrotation Xrotation Yrotation
                JOINT rPinky2
                {
                  OFFSET -1.82734 -0.647385 -0.700984
                  CHANNELS 3 Zrotation Xrotation Yrotation
                  End Site
                  {
                    OFFSET -1.69225 -0.51767 -0.607171
                  }
                }
              }
            }
          }
        }
      }
      JOINT lCollar
      {
        OFFSET 2.68224 19.2634 -4.8768
        CHANNELS 3 Zrotation Xrotation Yrotation
        JOINT lShldr
        {
          OFFSET 8.77824 -1.95073 1.46304
          CHANNELS 3 Zrotation Xrotation Yrotation
          JOINT lForeArm
          {
            OFFSET 28.1742 -1.7115 0.48768
            CHANNELS 3 Zrotation Xrotation Yrotation
            JOINT lHand
            {
              OFFSET 22.5879 0.773209 7.07136
              CHANNELS 3 Zrotation Xrotation Yrotation
              JOINT lThumb1
              {
                OFFSET 1.2192 -0.487915 3.41376
                CHANNELS 3 Zrotation Xrotation Yrotation
                JOINT lThumb2
                {
                  OFFSET 3.37035 -0.52449 3.41376
                  CHANNELS 3 Zrotation Xrotation Yrotation
                  End Site
                  {
                    OFFSET 1.78271 -1.18214 1.43049
                  }
                }
              }
              JOINT lIndex1
              {
                OFFSET 7.75947 0.938293 5.60832
                CHANNELS 3 Zrotation Xrotation Yrotation
                JOINT lIndex2
                {
                  OFFSET 2.54057 -0.884171 1.56538
                  CHANNELS 3 Zrotation Xrotation Yrotation
                  End Site
                  {
                    OFFSET 1.62519 -0.234802 1.16502
                  }
                }
              }
              JOINT lMid1
              {
                OFFSET 8.24714 1.18213 3.41376
                CHANNELS 3 Zrotation Xrotation Yrotation
                JOINT lMid2
                {
                  OFFSET 3.10165 -0.590103 1.0647
                  CHANNELS 3 Zrotation Xrotation Yrotation
                  End Site
                  {
                    OFFSET 2.48547 -0.328903 0.83742
                  }
                }
              }
              JOINT lRing1
              {
                OFFSET 8.82822 0.546677 1.51678
                CHANNELS 3 Zrotation Xrotation Yrotation
                JOINT lRing2
                {
                  OFFSET 2.60934 -0.819778 -0.0198488
                  CHANNELS 3 Zrotation Xrotation Yrotation
                  End Site
                  {
                    OFFSET 2.33842 -0.294052 0.168128
                  }
                }
              }
              JOINT lPinky1
              {
                OFFSET 8.27202 -0.0477905 -0.4584
                CHANNELS 3 Zrotation Xrotation Yrotation
                JOINT lPinky2
                {
                  OFFSET 1.82734 -0.647385 -0.700984
                  CHANNELS 3 Zrotation Xrotation Yrotation
                  End Site
                  {
                    OFFSET 1.69225 -0.51767 -0.607171
                  }
                }
              }
            }
          }
        }
      }
    }
  }
  JOINT rButtock
  {
    OFFSET -8.77824 4.35084 1.2192
    CHANNELS 3 Zrotation Xrotation Yrotation
    JOINT rThigh
    {
      OFFSET 0 -1.70687 -2.19456
      CHANNELS 3 Zrotation Xrotation Yrotation
      JOINT rShin
      {
        OFFSET 0 -36.8199 0.73152
        CHANNELS 3 Zrotation Xrotation Yrotation
        JOINT rFoot
        {
          OFFSET 0.73152 -45.1104 -5.12064
          CHANNELS 3 Zrotation Xrotation Yrotation
          End Site
          {
            OFFSET -1.1221 -3.69964 12.103
          }
        }
      }
    }
  }
  JOINT lButtock
  {
    OFFSET 8.77824 4.35084 1.2192
    CHANNELS 3 Zrotation Xrotation Yrotation
    JOINT lThigh
    {
      OFFSET 0 -1.70687 -2.19456
      CHANNELS 3 Zrotation Xrotation Yrotation
      JOINT lShin
      {
        OFFSET 0 -36.8199 0.73152
        CHANNELS 3 Zrotation Xrotation Yrotation
        JOINT lFoot
        {
          OFFSET -0.73152 -45.1104 -5.12064
          CHANNELS 3 Zrotation Xrotation Yrotation
          End Site
          {
            OFFSET 1.1221 -3.69964 12.103
          }
        }
      }
    }
  }
}
MOTION
Frames:	5
Frame Time:	0.00833333
-31.825300000000002 87.152 -14.5015 11.884942 61.723883 24.465015 -9.750034 -12.900182 -2.596482 -0.995042 -12.162737 9.348813 -18.224677 24.94978 -91.507371 23.215744 32.669005 133.156186 0.000785 0.0 0.002649 0.000785 0.0 0.002649 -155.260059 -1.950432 161.503097 -102.648527 12.405479 52.413977 -73.673666 -82.20323 167.214136 178.470868 -15.774267 143.487339 93.028465 -51.084113 40.500864 -161.813481 -27.841537 126.468646 24.077578 -42.305965 -5.557406 -96.497642 45.977257 79.631174 -166.017529 -23.71857 145.057795 -163.649608 -5.676536 143.063567 -74.840627 72.960395 92.828202 -156.364847 -45.28084 -176.22355 -135.821519 -11.892085 -133.185063 6.962292 11.410869 1.220319 149.904871 22.421562 -154.974838 -120.875991 13.679583 -153.388857 -173.152185 -19.770487 -11.54213 -178.919576 1.329979 -144.081867 -11.108651 -11.092724 0.639694 -32.580686 -74.466422 26.514703 130.885727 15.214526 -109.737369 81.179996 56.21183 -60.342057 160.097342 -4.90129 -142.968943 -3.095095 0.393755 -0.412958 -0.00341 1.77144 -0.556168 156.689878 -39.066006 -176.515021 -8.581499 27.21159 -7.533031 -14.796348 44.072577 -8.544735 -0.001217 -0.000399 -0.001826 -16.713099 -36.171018 -10.321014 28.690066 47.548104 65.338329 54.485622 74.664152 -138.077496 -0.004196 0.001249 -0.002098 1.133869 -22.737258 -2.114894 -18.578066 33.276233 32.043108 -93.876995 -31.807392 1.405389
-32.5679 86.7823 -13.849300000000001 8.260019 52.677071 20.400117 -8.315007 -17.96265 -139.69158 7.351561 4.043274 144.860902 -14.995672 14.292722 -30.626237 32.288439 3.792337 71.277303 -0.002868 0.0 -0.003249 -0.001541 -0.0 0.002238 -130.360335 54.595823 134.225676 -109.12056 -18.279395 103.805219 -135.790592 81.439029 -137.714314 -7.453378 0.490093 -2.378851 -166.630382 -4.30521 89.771796 47.810771 -64.922072 37.99749 -138.763364 4.487438 115.031683 -63.775279 56.664256 45.565719 -125.64191 49.839024 115.273368 -175.097956 -39.039141 143.044482 -0.014656 -1.323217 -0.415456 9.460205 11.538691 1.485785 -4.785391 -11.116503 -4.480641 1.607722 -2.994216 -0.951244 -3.737299 -33.150857 6.413878 3.157519 -58.586285 89.425821 -98.527378 -63.677169 76.549084 170.042647 30.972017 -140.348282 -4.530564 -4.514232 0.520864 168.042938 -78.218514 -115.323541 -159.64156 -69.973213 -102.397608 13.071919 39.214702 -8.69842 10.974892 25.790181 -7.63937 171.995782 -31.360602 -144.079381 0.000411 0.022621 -0.007279 149.983276 38.867465 -164.836472 -0.46548 1.226284 -0.4295 -28.281784 75.241791 -6.33545 0.005527 -0.000939 0.002763 -16.959911 -36.609399 -10.581796 15.621985 53.748095 -113.119278 -3.733321 -44.461161 87.426931 -179.998766 75.749082 -0.001273 -175.491947 53.230848 0.0 -33.131377 41.39233 -104.830517 69.672675 0.920838 163.534004
-33.5086 86.3418 -13.1993 6.243893 43.815947 17.88693 -7.234122 -16.207697 -73.695197 8.766351 -6.508923 77.410099 2.604784 20.640366 97.988853 -22.935915 -9.508047 -63.824099 0.003819 0.0 0.000728 0.003819 0.0 0.000728 -155.614163 -4.23623 161.991529 -54.299075 -28.801738 49.008506 178.813847 18.03359 -94.676237 -10.416867 9.376239 -1.291796 -5.433797 5.264866 1.078113 -29.911823 22.090918 29.059961 -148.886167 -12.610092 120.24408 179.18731 -47.047349 113.473165 -167.374156 -28.008658 145.269183 13.274906 -30.010947 -0.988186 -0.016472 -1.323333 -0.414657 9.282049 13.322266 1.748738 4.596743 13.359683 4.156845 -155.131443 39.004506 -148.615673 48.790699 -86.434725 70.45316 82.194115 -15.865223 93.609228 0.137038 30.67973 156.744849 -173.962708 -16.983113 -143.354587 -51.05903 -41.204094 -12.857513 22.963607 7.637691 7.773817 150.886207 -16.291772 -120.97748 -4.311232 13.358894 7.280041 139.240039 37.933107 -127.556215 167.405594 -17.788584 -143.916195 145.061776 -3.3105 178.088696 66.442748 87.676009 -79.981505 124.852492 -29.039678 122.622631 -1.9571 -2.84895 2.55117 -179.997275 75.749489 -0.002812 163.450196 36.513706 26.538216 49.608535 41.53231 115.080576 -34.989402 18.322054 174.802575 -179.988079 75.74898 -0.008157 -171.617129 53.229088 -6.632428 -40.218279 41.176616 -118.818719 92.203898 22.960303 170.383375
-34.7042 86.5212 -12.4119 4.548068 35.319045 15.922087 -9.046542 -19.687171 -180.0 1.834676 6.999904 179.629156 -13.904535 29.064542 -137.137344 -3.976845 41.554264 174.806118 0.001801 -0.0 -0.002897 -0.00367 0.0 -0.001195 4.210133 -43.443152 -8.382202 -71.559695 -10.401961 -92.244165 64.158667 -46.783715 -72.728071 -166.083529 27.94311 137.298441 -171.706361 -9.388111 89.950177 -29.005247 -32.375411 3.705458 -158.736693 -30.754837 122.631977 -170.28163 -35.18792 117.610821 -10.97577 25.790084 7.639084 146.94716 -74.105953 114.899864 0.001065 0.063755 0.019716 -156.358159 -46.240976 177.548282 -146.183661 15.333584 -142.709244 16.879577 43.804292 6.038855 0.164656 0.979373 -0.217677 4.35063 -88.44919 98.265143 163.859807 58.426676 68.012491 5.903192 7.386955 1.209562 172.746845 -10.423334 -89.929063 29.414217 -32.21612 -3.074262 46.209698 39.651193 -36.319711 165.014698 -12.008048 -112.148705 154.143941 11.634764 -139.428516 -3.561102 -0.792925 -0.245345 0.022616 -1.725979 0.542887 154.150048 12.206312 -170.18945 -7.928454 24.811437 -7.004167 33.34341 -46.655446 33.351636 -179.978493 75.749599 -0.017696 165.727943 36.945587 8.464165 30.952351 41.692322 18.281757 -141.271554 8.780728 71.683779 -179.998514 75.750196 -0.0 -167.507828 52.826704 -15.538447 -38.783155 42.196727 162.150875 -149.652145 49.080585 64.667674
-36.1402 86.9089 -11.6473 2.558954 27.272965 13.995979 -6.226405 -19.303605 -142.873033 7.181394 3.76764 139.881436 -17.868679 25.507851 -109.027157 15.725898 40.232914 132.746885 -0.003286 -0.0 0.001235 0.00174 -0.0 -0.001329 1.990284 -14.052858 -2.881651 -80.126051 -9.046181 -126.491585 68.809658 -35.824668 -79.093272 -159.879196 38.924261 132.739733 179.143905 -18.272942 89.128944 103.103935 -70.413287 79.132958 -14.2285 19.203294 9.560243 53.358387 -49.418747 12.212485 15.673541 -46.713028 -2.534865 -42.259385 58.49409 36.153291 -73.627919 72.970442 91.554997 5.156003 27.460536 -0.821916 -156.866429 55.541218 -150.329224 -148.1891 11.436638 -141.941265 50.909077 -86.503677 72.600353 -97.848642 22.287363 92.630504 -172.778842 -14.811357 -18.289822 179.665842 2.083156 -143.588297 -71.83091 -48.264453 -25.79118 133.938677 17.802357 -101.946275 108.426926 34.161258 -91.743476 171.315947 -23.481722 -115.758307 166.119687 -24.039612 -145.077845 176.860069 -42.222139 -142.402307 0.02158 -1.725271 0.541715 156.430871 -31.6476 -175.572911 43.364256 -47.546366 42.161848 146.488123 11.698966 143.153349 179.997997 75.751229 0.001648 168.939014 35.70164 141.284855 21.604967 -54.997828 -36.578469 85.590616 71.894251 -159.719611 0.0 0.000279 -0.000194 10.24001 -23.999897 107.636334 59.017945 21.754902 122.262126 36.086111 13.348628 176.968277
